<svg width="17" height="17" viewBox="0 0 17 17" fill="none" xmlns="http://www.w3.org/2000/svg">
<path d="M1.88889 17C1.36944 17 0.924926 16.8152 0.555333 16.4456C0.185741 16.076 0.00062963 15.6312 0 15.1111V1.88889C0 1.36944 0.185111 0.924926 0.555333 0.555333C0.925556 0.185741 1.37007 0.00062963 1.88889 0H15.1111C15.6306 0 16.0754 0.185111 16.4456 0.555333C16.8158 0.925556 17.0006 1.37007 17 1.88889V15.1111C17 15.6306 16.8152 16.0754 16.4456 16.4456C16.076 16.8158 15.6312 17.0006 15.1111 17H1.88889ZM1.88889 15.1111H15.1111V1.88889H1.88889V15.1111ZM2.83333 13.2222H14.1667L10.625 8.5L7.79167 12.2778L5.66667 9.44444L2.83333 13.2222ZM5.19444 6.61111C5.58796 6.61111 5.92261 6.47354 6.19839 6.19839C6.47417 5.92324 6.61174 5.58859 6.61111 5.19444C6.61048 4.8003 6.47291 4.46596 6.19839 4.19144C5.92387 3.91693 5.58922 3.77904 5.19444 3.77778C4.79967 3.77652 4.46533 3.91441 4.19144 4.19144C3.91756 4.46848 3.77967 4.80281 3.77778 5.19444C3.77589 5.58607 3.91378 5.92072 4.19144 6.19839C4.46911 6.47605 4.80344 6.61363 5.19444 6.61111Z" fill="#616161"/>
</svg>
